<?xml version="1.0" encoding="UTF-8" standalone="no"?>
<!-- Created with Inkscape (http://www.inkscape.org/) -->

<svg
   width="1025"
   height="1023.9999"
   viewBox="0 0 271.19792 270.93333"
   version="1.1"
   id="svg1"
   xml:space="preserve"
   sodipodi:docname="logo.svg"
   inkscape:version="1.4.3 (0d15f75, 2025-12-25)"
   inkscape:export-filename="editor\src-tauri\icons\32x32.png"
   inkscape:export-xdpi="2.9970732"
   inkscape:export-ydpi="2.9970732"
   xmlns:inkscape="http://www.inkscape.org/namespaces/inkscape"
   xmlns:sodipodi="http://sodipodi.sourceforge.net/DTD/sodipodi-0.dtd"
   xmlns="http://www.w3.org/2000/svg"
   xmlns:svg="http://www.w3.org/2000/svg"><sodipodi:namedview
     id="namedview1"
     pagecolor="#ffffff"
     bordercolor="#000000"
     borderopacity="0.25"
     inkscape:showpageshadow="2"
     inkscape:pageopacity="0.0"
     inkscape:pagecheckerboard="0"
     inkscape:deskcolor="#d1d1d1"
     inkscape:document-units="mm"
     inkscape:zoom="1.0752595"
     inkscape:cx="774.23168"
     inkscape:cy="526.84955"
     inkscape:window-width="2880"
     inkscape:window-height="1514"
     inkscape:window-x="3829"
     inkscape:window-y="-11"
     inkscape:window-maximized="1"
     inkscape:current-layer="layer1" /><defs
     id="defs1" /><g
     inkscape:label="图层 1"
     inkscape:groupmode="layer"
     id="layer1"
     transform="translate(-31.832564,-47.017076)"><path
       style="fill:#8888cc;fill-opacity:1;stroke-width:1.74002"
       d="M 143.61553,127.23465 V 95.35695 H 127.04186 110.46818 V 71.187013 47.017076 h 29.00393 29.00393 v 29.694494 29.69449 15.31124 12.76302 c -8.35245,8.1447 -16.60882,16.38571 -24.86051,24.63203 z"
       id="path6"
       sodipodi:nodetypes="cccccccccccccc" /><path
       style="fill:#000000;stroke-width:1.74002"
       d="m 64.080381,201.12471 -25.897813,-25.90087 0.118078,-34.29379 0.118077,-34.29379 46.703319,-0.1173 c 25.686858,-0.0645 46.818298,0.0391 46.958778,0.23019 0.14042,0.19112 0.19549,12.10443 0.12232,26.47404 l -0.13311,26.12655 h -10.11029 -10.11029 v -15.84015 -15.84012 l -4.25852,-0.29843 c -2.34218,-0.16409 -14.20274,-0.23525 -26.356767,-0.158 l -22.098229,0.14042 -0.118965,19.56615 -0.118965,19.56616 20.951155,20.94538 20.951141,20.94538 v 6.37196 6.37197 l -2.835256,2.95262 c -2.823353,2.94024 -2.84606,2.95261 -5.410986,2.95261 h -2.575731 z"
       id="path5" /><path
       style="fill:#000000;stroke-width:1.74002"
       d="M 143.61553,224.95386 V 191.11593 H 121.39894 99.182321 L 87.10061,179.02777 75.018899,166.9396 v -14.15348 -14.15346 h 10.358554 10.358536 v 9.77688 9.7769 l 6.093661,6.10621 6.09365,6.10619 h 20.08689 20.08691 l 14.55529,-14.61705 14.5553,-14.61706 0.007,-17.38814 0.007,-17.38814 10.24345,0.12391 10.24346,0.1239 0.11884,21.63785 0.11884,21.63786 -16.80761,16.8015 -16.80761,16.80149 v 37.63842 37.6384 h -10.35855 -10.35854 z"
       id="path4" /><path
       style="fill:#000000;stroke-width:1.74002"
       d="m 38.188526,235.54258 v -23.24917 h 10.358545 10.358543 v 12.89063 12.89063 h 20.378208 20.378187 l 6.121391,-6.13398 6.12138,-6.13398 -0.0874,-11.70573 -0.0874,-11.70573 h 10.22233 10.22234 l -0.0311,16.05101 -0.0311,16.051 -11.95062,12.14726 -11.95062,12.14724 H 73.199814 38.188526 Z"
       id="path3" /><path
       style="fill:#8888cc;fill-opacity:1;stroke-width:1.74002"
       d="m 184.81952,261.71137 c -6.62433,-0.80671 -9.07558,-1.25899 -9.24633,-1.70602 -0.1098,-0.28766 -0.14616,-14.25502 -0.0806,-31.03858 l 0.11919,-30.51555 2.0717,2.84812 c 3.69649,5.08181 9.61181,9.06314 16.14655,10.86754 2.22625,0.61471 4.66968,0.8171 9.86491,0.8171 7.38841,0 10.94818,-0.72194 15.87827,-3.2202 8.49966,-4.30711 15.0805,-12.99385 17.71673,-23.38613 1.97906,-7.80168 2.0812,-11.5827 2.08287,-77.09421 l 0.002,-62.266364 h 29.00392 29.00393 V 152.90442 258.79176 H 270.68074 243.9787 v -14.50195 c 0,-13.15052 -0.23083,-16.0432 -1.09955,-13.77933 -0.70511,1.8375 -7.67846,10.22464 -11.75153,14.13406 -11.4596,10.99921 -24.59232,16.67322 -39.54711,17.08641 -2.95871,0.0818 -6.00097,0.0729 -6.7606,-0.0195 z"
       id="path2" /><path
       style="fill:#8888cc;fill-opacity:1;stroke-width:1.74002"
       d="m 110.46848,294.12591 -3e-4,-23.82466 h 1.08619 c 0.80582,0 3.59838,-2.55461 10.81893,-9.89708 l 9.73274,-9.89709 v 9.89709 9.89708 h 15.88309 15.88312 v 23.70957 23.70956 l -23.59448,0.0753 c -12.97695,0.0414 -24.99273,0.0933 -26.70172,0.11502 l -3.10727,0.0397 z"
       id="path1" /></g></svg>
